<svg width="43" height="37" viewBox="0 0 43 37" fill="none" xmlns="http://www.w3.org/2000/svg">
<g clip-path="url(#clip0)">
<path d="M41.8402 16.0932C41.8392 16.0924 41.8382 16.0915 41.8372 16.0907L24.2966 0.998169C23.549 0.354553 22.5549 0 21.4976 0C20.4402 0 19.4462 0.354271 18.6982 0.997887L1.16681 16.0828C1.1609 16.0879 1.155 16.0932 1.14909 16.0983C-0.386247 17.427 -0.383623 19.5829 1.15664 20.9082C1.86033 21.514 2.78974 21.8649 3.78345 21.9016C3.8238 21.905 3.86448 21.9066 3.90549 21.9066H4.60459V33.0138C4.60459 35.2117 6.68288 37 9.23784 37H16.1003C16.7958 37 17.36 36.5147 17.36 35.916V27.208C17.36 26.205 18.3082 25.3892 19.4738 25.3892H23.5214C24.687 25.3892 25.6351 26.205 25.6351 27.208V35.916C25.6351 36.5147 26.1991 37 26.8949 37H33.7573C36.3123 37 38.3906 35.2117 38.3906 33.0138V21.9066H39.0388C40.0959 21.9066 41.0899 21.5524 41.8382 20.9088C43.3801 19.5812 43.3808 17.4217 41.8402 16.0932V16.0932Z" fill="black"/>
</g>
<defs>
<clipPath id="clip0">
<rect width="43" height="37" fill="white"/>
</clipPath>
</defs>
</svg>
