<svg width="1152" height="113" viewBox="0 0 1152 113" fill="none" xmlns="http://www.w3.org/2000/svg">
<path fill-rule="evenodd" clip-rule="evenodd" d="M0 0L7.68 16.7407C15.36 33.4815 30.72 66.963 46.08 75.3333C61.44 83.7037 76.8 66.963 92.16 56.5C107.52 46.037 122.88 41.8519 138.24 50.2222C153.6 58.5926 168.96 79.5185 184.32 92.0741C199.68 104.63 215.04 108.815 230.4 100.444C245.76 92.0741 261.12 71.1481 276.48 62.7778C291.84 54.4074 307.2 58.5926 322.56 66.963C337.92 75.3333 353.28 87.8889 368.64 94.1667C384 100.444 399.36 100.444 414.72 92.0741C430.08 83.7037 445.44 66.963 460.8 66.963C476.16 66.963 491.52 83.7037 506.88 92.0741C522.24 100.444 537.6 100.444 552.96 96.2593C568.32 92.0741 583.68 83.7037 599.04 81.6111C614.4 79.5185 629.76 83.7037 645.12 71.1481C660.48 58.5926 675.84 29.2963 691.2 27.2037C706.56 25.1111 721.92 50.2222 737.28 69.0556C752.64 87.8889 768 100.444 783.36 98.3519C798.72 96.2593 814.08 79.5185 829.44 69.0556C844.8 58.5926 860.16 54.4074 875.52 62.7778C890.88 71.1481 906.24 92.0741 921.6 92.0741C936.96 92.0741 952.32 71.1481 967.68 62.7778C983.04 54.4074 998.4 58.5926 1013.76 54.4074C1029.12 50.2222 1044.48 37.6667 1059.84 39.7593C1075.2 41.8519 1090.56 58.5926 1105.92 54.4074C1121.28 50.2222 1136.64 25.1111 1144.32 12.5556L1152 0V113H1144.32C1136.64 113 1121.28 113 1105.92 113C1090.56 113 1075.2 113 1059.84 113C1044.48 113 1029.12 113 1013.76 113C998.4 113 983.04 113 967.68 113C952.32 113 936.96 113 921.6 113C906.24 113 890.88 113 875.52 113C860.16 113 844.8 113 829.44 113C814.08 113 798.72 113 783.36 113C768 113 752.64 113 737.28 113C721.92 113 706.56 113 691.2 113C675.84 113 660.48 113 645.12 113C629.76 113 614.4 113 599.04 113C583.68 113 568.32 113 552.96 113C537.6 113 522.24 113 506.88 113C491.52 113 476.16 113 460.8 113C445.44 113 430.08 113 414.72 113C399.36 113 384 113 368.64 113C353.28 113 337.92 113 322.56 113C307.2 113 291.84 113 276.48 113C261.12 113 245.76 113 230.4 113C215.04 113 199.68 113 184.32 113C168.96 113 153.6 113 138.24 113C122.88 113 107.52 113 92.16 113C76.8 113 61.44 113 46.08 113C30.72 113 15.36 113 7.68 113H0V0Z" fill="#E93636"/>
</svg>
