<svg width="1152" height="101" viewBox="0 0 1152 101" fill="none" xmlns="http://www.w3.org/2000/svg">
<path fill-rule="evenodd" clip-rule="evenodd" d="M0 18.3083L12.48 16.5856C24 14.8628 48 11.4173 72 23.4765C96 35.5357 120 63.0996 144 78.6043C168 94.109 192 97.5545 216 90.6635C240 83.7726 264 66.5451 288 61.3769C312 56.2087 336 63.0996 360 56.2087C384 49.3177 408 28.6448 432 26.922C456 25.1993 480 42.4267 504 52.7632C528 63.0996 552 66.5451 576 68.2679C600 69.9906 624 69.9906 648 68.2679C672 66.5451 696 63.0996 720 59.6542C744 56.2087 768 52.7632 792 56.2087C816 59.6542 840 69.9906 864 61.3769C888 52.7632 912 25.1993 936 11.4173C960 -2.36461 984 -2.36461 1008 4.52637C1032 11.4173 1056 25.1993 1080 30.3675C1104 35.5357 1128 32.0903 1140.48 30.3675L1152 28.6448V101H1140.48C1128 101 1104 101 1080 101C1056 101 1032 101 1008 101C984 101 960 101 936 101C912 101 888 101 864 101C840 101 816 101 792 101C768 101 744 101 720 101C696 101 672 101 648 101C624 101 600 101 576 101C552 101 528 101 504 101C480 101 456 101 432 101C408 101 384 101 360 101C336 101 312 101 288 101C264 101 240 101 216 101C192 101 168 101 144 101C120 101 96 101 72 101C48 101 24 101 12.48 101H0V18.3083Z" fill="#FF3366"/>
</svg>
