<svg width="34" height="34" viewBox="0 0 34 34" fill="none" xmlns="http://www.w3.org/2000/svg">
<path d="M33.4565 8.63744L32.3428 7.51598C31.9923 7.16575 31.526 6.97281 31.0276 6.97281C30.5295 6.97281 30.0626 7.16575 29.7121 7.51598L17.0076 20.221L4.28846 7.50188C3.9385 7.15165 3.47162 6.95898 2.9735 6.95898C2.47539 6.95898 2.00823 7.15165 1.658 7.50188L0.544004 8.61643C-0.181335 9.34122 -0.181335 10.5218 0.544004 11.2466L15.6877 26.4447C16.0376 26.7947 16.504 27.0413 17.0065 27.0413H17.0123C17.5107 27.0413 17.977 26.7944 18.327 26.4447L33.4565 11.2878C33.8071 10.9378 33.9994 10.4574 34 9.9593C34 9.46091 33.8071 8.98711 33.4565 8.63744Z" fill="black"/>
</svg>
