<svg width="24" height="32" viewBox="0 0 24 32" fill="none" xmlns="http://www.w3.org/2000/svg">
<path d="M10.4242 22.1445L10.0036 25.9264C9.98282 26.1145 10.0433 26.3033 10.1696 26.4446C10.2959 26.5859 10.4769 26.6666 10.6664 26.6666H13.3331C13.5225 26.6666 13.7035 26.5859 13.8298 26.4446C13.9561 26.3034 14.0167 26.1146 13.9958 25.9264L13.5753 22.1445C14.2582 21.6478 14.6664 20.8619 14.6664 19.9999C14.6664 18.5293 13.4704 17.3333 11.9997 17.3333C10.5289 17.3333 9.33301 18.5293 9.33301 19.9999C9.33301 20.8619 9.74126 21.6478 10.4242 22.1445ZM11.9997 18.6666C12.7347 18.6666 13.333 19.2649 13.333 19.9999C13.333 20.511 13.0426 20.9687 12.5752 21.1953C12.3206 21.3189 12.1716 21.5885 12.2028 21.8691L12.5883 25.3333H11.4112L11.7966 21.8691C11.8279 21.5884 11.6788 21.3189 11.4243 21.1953C10.9568 20.9687 10.6664 20.511 10.6664 19.9999C10.6664 19.2649 11.2647 18.6666 11.9997 18.6666Z" fill="#F6F7F8"/>
<path d="M23.3333 12H21.3333V9.33331C21.3333 4.18687 17.1465 0 12 0C6.8535 0 2.66669 4.18687 2.66669 9.33331V10C2.66669 10.3685 2.96487 10.6667 3.33337 10.6667H6C6.3685 10.6667 6.66669 10.3685 6.66669 10V9.33331C6.66669 6.39256 9.05925 4 12 4C14.9408 4 17.3333 6.39256 17.3333 9.33331V12H0.666687C0.298187 12 0 12.2982 0 12.6667V29.3334C0 30.8041 1.19594 32 2.66669 32H21.3334C22.8041 32 24 30.8041 24 29.3333V12.6667C24 12.2982 23.7018 12 23.3333 12ZM12 2.66669C8.32419 2.66669 5.33331 5.65756 5.33331 9.33337H4C4 4.92194 7.58856 1.33337 12 1.33337C16.4114 1.33337 20 4.92194 20 9.33337V12H18.6667V9.33331C18.6667 5.65756 15.6758 2.66669 12 2.66669ZM22.6667 29.3333C22.6667 30.0683 22.0684 30.6666 21.3334 30.6666H2.66669C1.93169 30.6666 1.33337 30.0683 1.33337 29.3333V13.3333H22.6667V29.3333Z" fill="#F6F7F8"/>
</svg>
