<svg width="24" height="32" viewBox="0 0 24 32" fill="none" xmlns="http://www.w3.org/2000/svg">
<path d="M10.3157 21.914L9.89948 25.6564C9.87888 25.8426 9.93875 26.0295 10.0638 26.1693C10.1887 26.3091 10.3679 26.389 10.5553 26.389H13.1942C13.3817 26.389 13.5608 26.3091 13.6858 26.1693C13.8108 26.0295 13.8707 25.8427 13.8501 25.6564L13.4339 21.914C14.1097 21.4224 14.5137 20.6448 14.5137 19.7917C14.5137 18.3364 13.3302 17.1528 11.8747 17.1528C10.4193 17.1528 9.23584 18.3364 9.23584 19.7917C9.23584 20.6448 9.63984 21.4224 10.3157 21.914ZM11.8747 18.4723C12.6021 18.4723 13.1942 19.0644 13.1942 19.7917C13.1942 20.2975 12.9068 20.7504 12.4443 20.9746C12.1923 21.097 12.0448 21.3638 12.0758 21.6414L12.4572 25.0695H11.2924L11.6738 21.6414C11.7047 21.3637 11.5572 21.097 11.3053 20.9746C10.8427 20.7504 10.5554 20.2975 10.5554 19.7917C10.5553 19.0644 11.1474 18.4723 11.8747 18.4723Z" fill="#F6F7F8"/>
<path d="M23.0903 11.875H21.1111V9.23609C21.1111 4.14326 16.9679 0 11.875 0C6.78211 0 2.63891 4.14326 2.63891 9.23609V11.875H0.659743C0.295081 11.875 0 12.1701 0 12.5347V29.0278C0 30.4832 1.18348 31.6667 2.63891 31.6667H21.1112C22.5665 31.6667 23.75 30.4832 23.75 29.0278V12.5347C23.75 12.1701 23.4549 11.875 23.0903 11.875ZM3.95833 9.23609C3.95833 4.8706 7.50951 1.31942 11.875 1.31942C16.2405 1.31942 19.7917 4.8706 19.7917 9.23609V11.875H18.4722V9.23609C18.4722 5.59857 15.5125 2.63885 11.875 2.63885C8.23748 2.63885 5.27776 5.59863 5.27776 9.23609V11.875H3.95833V9.23609ZM17.1528 9.23609V11.875H6.59724V9.23609C6.59724 6.32597 8.96488 3.95833 11.875 3.95833C14.7851 3.95833 17.1528 6.32597 17.1528 9.23609ZM22.4306 29.0278C22.4306 29.7551 21.8385 30.3472 21.1112 30.3472H2.63891C1.91157 30.3472 1.31949 29.7551 1.31949 29.0278V13.1944H22.4306V29.0278Z" fill="#F6F7F8"/>
</svg>
