<svg width="1152" height="143" viewBox="0 0 1152 143" fill="none" xmlns="http://www.w3.org/2000/svg">
<path fill-rule="evenodd" clip-rule="evenodd" d="M0 25.0171L19.2 31.5717C38.4 38.1263 76.8 51.2355 115.2 47.9582C153.6 44.6809 192 25.0171 230.4 11.9079C268.8 -1.20132 307.2 -7.75593 345.6 15.1852C384 38.1263 422.4 90.5632 460.8 97.1178C499.2 103.672 537.6 64.3447 576 57.7901C614.4 51.2355 652.8 77.4539 691.2 77.4539C729.6 77.4539 768 51.2355 806.4 54.5128C844.8 57.7901 883.2 90.5632 921.6 110.227C960 129.891 998.4 136.445 1036.8 136.445C1075.2 136.445 1113.6 129.891 1132.8 126.613L1152 123.336V143H1132.8C1113.6 143 1075.2 143 1036.8 143C998.4 143 960 143 921.6 143C883.2 143 844.8 143 806.4 143C768 143 729.6 143 691.2 143C652.8 143 614.4 143 576 143C537.6 143 499.2 143 460.8 143C422.4 143 384 143 345.6 143C307.2 143 268.8 143 230.4 143C192 143 153.6 143 115.2 143C76.8 143 38.4 143 19.2 143H0V25.0171Z" fill="#2EC4B6"/>
</svg>
