<svg width="1152" height="220" viewBox="0 0 1152 220" fill="none" xmlns="http://www.w3.org/2000/svg">
<path fill-rule="evenodd" clip-rule="evenodd" d="M0 0L7.68 32.5926C15.36 65.1852 30.72 130.37 46.08 146.667C61.44 162.963 76.8 130.37 92.16 110C107.52 89.6296 122.88 81.4815 138.24 97.7778C153.6 114.074 168.96 154.815 184.32 179.259C199.68 203.704 215.04 211.852 230.4 195.556C245.76 179.259 261.12 138.519 276.48 122.222C291.84 105.926 307.2 114.074 322.56 130.37C337.92 146.667 353.28 171.111 368.64 183.333C384 195.556 399.36 195.556 414.72 179.259C430.08 162.963 445.44 130.37 460.8 130.37C476.16 130.37 491.52 162.963 506.88 179.259C522.24 195.556 537.6 195.556 552.96 187.407C568.32 179.259 583.68 162.963 599.04 158.889C614.4 154.815 629.76 162.963 645.12 138.519C660.48 114.074 675.84 57.037 691.2 52.963C706.56 48.8889 721.92 97.7778 737.28 134.444C752.64 171.111 768 195.556 783.36 191.481C798.72 187.407 814.08 154.815 829.44 134.444C844.8 114.074 860.16 105.926 875.52 122.222C890.88 138.519 906.24 179.259 921.6 179.259C936.96 179.259 952.32 138.519 967.68 122.222C983.04 105.926 998.4 114.074 1013.76 105.926C1029.12 97.7778 1044.48 73.3333 1059.84 77.4074C1075.2 81.4815 1090.56 114.074 1105.92 105.926C1121.28 97.7778 1136.64 48.8889 1144.32 24.4444L1152 0V220H1144.32C1136.64 220 1121.28 220 1105.92 220C1090.56 220 1075.2 220 1059.84 220C1044.48 220 1029.12 220 1013.76 220C998.4 220 983.04 220 967.68 220C952.32 220 936.96 220 921.6 220C906.24 220 890.88 220 875.52 220C860.16 220 844.8 220 829.44 220C814.08 220 798.72 220 783.36 220C768 220 752.64 220 737.28 220C721.92 220 706.56 220 691.2 220C675.84 220 660.48 220 645.12 220C629.76 220 614.4 220 599.04 220C583.68 220 568.32 220 552.96 220C537.6 220 522.24 220 506.88 220C491.52 220 476.16 220 460.8 220C445.44 220 430.08 220 414.72 220C399.36 220 384 220 368.64 220C353.28 220 337.92 220 322.56 220C307.2 220 291.84 220 276.48 220C261.12 220 245.76 220 230.4 220C215.04 220 199.68 220 184.32 220C168.96 220 153.6 220 138.24 220C122.88 220 107.52 220 92.16 220C76.8 220 61.44 220 46.08 220C30.72 220 15.36 220 7.68 220H0V0Z" fill="#FF3366" fill-opacity="0.53"/>
<path fill-rule="evenodd" clip-rule="evenodd" d="M0 0L7.68 32.5926C15.36 65.1852 30.72 130.37 46.08 146.667C61.44 162.963 76.8 130.37 92.16 110C107.52 89.6296 122.88 81.4815 138.24 97.7778C153.6 114.074 168.96 154.815 184.32 179.259C199.68 203.704 215.04 211.852 230.4 195.556C245.76 179.259 261.12 138.519 276.48 122.222C291.84 105.926 307.2 114.074 322.56 130.37C337.92 146.667 353.28 171.111 368.64 183.333C384 195.556 399.36 195.556 414.72 179.259C430.08 162.963 445.44 130.37 460.8 130.37C476.16 130.37 491.52 162.963 506.88 179.259C522.24 195.556 537.6 195.556 552.96 187.407C568.32 179.259 583.68 162.963 599.04 158.889C614.4 154.815 629.76 162.963 645.12 138.519C660.48 114.074 675.84 57.037 691.2 52.963C706.56 48.8889 721.92 97.7778 737.28 134.444C752.64 171.111 768 195.556 783.36 191.481C798.72 187.407 814.08 154.815 829.44 134.444C844.8 114.074 860.16 105.926 875.52 122.222C890.88 138.519 906.24 179.259 921.6 179.259C936.96 179.259 952.32 138.519 967.68 122.222C983.04 105.926 998.4 114.074 1013.76 105.926C1029.12 97.7778 1044.48 73.3333 1059.84 77.4074C1075.2 81.4815 1090.56 114.074 1105.92 105.926C1121.28 97.7778 1136.64 48.8889 1144.32 24.4444L1152 0V220H1144.32C1136.64 220 1121.28 220 1105.92 220C1090.56 220 1075.2 220 1059.84 220C1044.48 220 1029.12 220 1013.76 220C998.4 220 983.04 220 967.68 220C952.32 220 936.96 220 921.6 220C906.24 220 890.88 220 875.52 220C860.16 220 844.8 220 829.44 220C814.08 220 798.72 220 783.36 220C768 220 752.64 220 737.28 220C721.92 220 706.56 220 691.2 220C675.84 220 660.48 220 645.12 220C629.76 220 614.4 220 599.04 220C583.68 220 568.32 220 552.96 220C537.6 220 522.24 220 506.88 220C491.52 220 476.16 220 460.8 220C445.44 220 430.08 220 414.72 220C399.36 220 384 220 368.64 220C353.28 220 337.92 220 322.56 220C307.2 220 291.84 220 276.48 220C261.12 220 245.76 220 230.4 220C215.04 220 199.68 220 184.32 220C168.96 220 153.6 220 138.24 220C122.88 220 107.52 220 92.16 220C76.8 220 61.44 220 46.08 220C30.72 220 15.36 220 7.68 220H0V0Z" fill="url(#paint0_linear)" fill-opacity="0.8"/>
<path fill-rule="evenodd" clip-rule="evenodd" d="M0 0L7.68 32.5926C15.36 65.1852 30.72 130.37 46.08 146.667C61.44 162.963 76.8 130.37 92.16 110C107.52 89.6296 122.88 81.4815 138.24 97.7778C153.6 114.074 168.96 154.815 184.32 179.259C199.68 203.704 215.04 211.852 230.4 195.556C245.76 179.259 261.12 138.519 276.48 122.222C291.84 105.926 307.2 114.074 322.56 130.37C337.92 146.667 353.28 171.111 368.64 183.333C384 195.556 399.36 195.556 414.72 179.259C430.08 162.963 445.44 130.37 460.8 130.37C476.16 130.37 491.52 162.963 506.88 179.259C522.24 195.556 537.6 195.556 552.96 187.407C568.32 179.259 583.68 162.963 599.04 158.889C614.4 154.815 629.76 162.963 645.12 138.519C660.48 114.074 675.84 57.037 691.2 52.963C706.56 48.8889 721.92 97.7778 737.28 134.444C752.64 171.111 768 195.556 783.36 191.481C798.72 187.407 814.08 154.815 829.44 134.444C844.8 114.074 860.16 105.926 875.52 122.222C890.88 138.519 906.24 179.259 921.6 179.259C936.96 179.259 952.32 138.519 967.68 122.222C983.04 105.926 998.4 114.074 1013.76 105.926C1029.12 97.7778 1044.48 73.3333 1059.84 77.4074C1075.2 81.4815 1090.56 114.074 1105.92 105.926C1121.28 97.7778 1136.64 48.8889 1144.32 24.4444L1152 0V220H1144.32C1136.64 220 1121.28 220 1105.92 220C1090.56 220 1075.2 220 1059.84 220C1044.48 220 1029.12 220 1013.76 220C998.4 220 983.04 220 967.68 220C952.32 220 936.96 220 921.6 220C906.24 220 890.88 220 875.52 220C860.16 220 844.8 220 829.44 220C814.08 220 798.72 220 783.36 220C768 220 752.64 220 737.28 220C721.92 220 706.56 220 691.2 220C675.84 220 660.48 220 645.12 220C629.76 220 614.4 220 599.04 220C583.68 220 568.32 220 552.96 220C537.6 220 522.24 220 506.88 220C491.52 220 476.16 220 460.8 220C445.44 220 430.08 220 414.72 220C399.36 220 384 220 368.64 220C353.28 220 337.92 220 322.56 220C307.2 220 291.84 220 276.48 220C261.12 220 245.76 220 230.4 220C215.04 220 199.68 220 184.32 220C168.96 220 153.6 220 138.24 220C122.88 220 107.52 220 92.16 220C76.8 220 61.44 220 46.08 220C30.72 220 15.36 220 7.68 220H0V0Z" fill="url(#paint1_linear)" fill-opacity="0.8"/>
<defs>
<linearGradient id="paint0_linear" x1="576" y1="161" x2="576" y2="220" gradientUnits="userSpaceOnUse">
<stop stop-color="#2EC4B6"/>
<stop offset="1" stop-color="white" stop-opacity="0"/>
</linearGradient>
<linearGradient id="paint1_linear" x1="576" y1="0" x2="576" y2="220" gradientUnits="userSpaceOnUse">
<stop offset="0.202275" stop-color="#20A4F3"/>
<stop offset="1" stop-color="white" stop-opacity="0"/>
</linearGradient>
</defs>
</svg>
